<?xml version="1.0" encoding="utf-8"?>
<!-- Svg Vector Icons : http://www.onlinewebfonts.com/icon -->
<!DOCTYPE svg PUBLIC "-//W3C//DTD SVG 1.1//EN" "http://www.w3.org/Graphics/SVG/1.1/DTD/svg11.dtd">
<svg version="1.1" xmlns="http://www.w3.org/2000/svg" xmlns:xlink="http://www.w3.org/1999/xlink" x="0px" y="0px" viewBox="0 0 1000 1000" enable-background="new 0 0 1000 1000" xml:space="preserve" fill="#90EE90">
<metadata> Svg Vector Icons : http://www.onlinewebfonts.com/icon </metadata>
<g><path d="M820.7,174.4c9.8,0,16.3,3.3,22.8,9.8l68.4,68.4c13,13,13,32.6,0,45.6L394.2,819.1c-6.5,6.5-13,9.8-22.8,9.8h-3.3h-3.3c-6.5,0-16.3-3.3-22.8-9.8L81.6,555.3c-13-13-13-32.6,0-45.6l68.4-68.4c6.5-6.5,13-9.8,22.8-9.8c9.8,0,16.3,3.3,22.8,9.8L368.1,614l429.8-429.8C804.4,177.7,814.2,174.4,820.7,174.4 M299.8,861.4c19.5,19.5,42.3,29.3,68.4,29.3h3.3h3.3c26,0,48.8-9.8,68.4-29.3l517.7-520.9c19.5-19.5,29.3-42.3,29.3-68.4c0-26-9.8-52.1-29.3-68.4l-71.6-65.1c-16.3-19.5-42.3-29.3-68.4-29.3l0,0c-26,0-48.8,9.8-68.4,29.3L371.4,519.5l-127-127c-19.5-19.5-42.3-29.3-68.4-29.3c-26,0-48.8,9.8-68.4,29.3l-68.4,68.4C19.8,480.5,10,503.3,10,529.3s9.8,48.8,29.3,68.4L299.8,861.4z"/></g>
</svg>